<svg width="21" height="21" viewBox="0 0 21 21" fill="none" xmlns="http://www.w3.org/2000/svg">
<path d="M1.62702 1.51703C1.19839 1.63393 0.886655 1.98464 0.886655 2.41327C0.886655 12.4277 8.99175 20.4939 18.9673 20.4939C19.4349 20.4939 19.7856 20.2211 19.9025 19.7925L20.8377 15.7399C20.9156 15.3113 20.7208 14.8437 20.2921 14.6489L15.9278 12.7784C15.5382 12.6226 15.1095 12.7395 14.8368 13.0512L12.8884 15.4282C9.84902 13.9864 7.39411 11.4925 5.99131 8.53106L8.36828 6.58272C8.68002 6.30995 8.79692 5.88132 8.64105 5.49165L6.77065 1.12737C6.57581 0.69873 6.10821 0.464929 5.67957 0.58183L1.62702 1.51703Z" fill="white"/>
</svg>
