<svg width="18" height="19" viewBox="0 0 18 19" fill="none" xmlns="http://www.w3.org/2000/svg">
<path d="M17.332 5.98047C17.7539 6.29688 18 6.78906 18 7.31641V16.5977C18 17.5117 17.2266 18.25 16.3125 18.25H1.6875C0.738281 18.25 0 17.5117 0 16.5625V7.31641C0 6.78906 0.210938 6.29688 0.632812 5.98047C1.51172 5.27734 2.21484 4.75 6.39844 1.72656C6.99609 1.30469 8.15625 0.25 8.96484 0.25H9C9.80859 0.25 10.9688 1.30469 11.5664 1.72656C15.75 4.75 16.4531 5.3125 17.332 5.98047ZM10.6523 13.1875L15.75 9.21484V7.59766C14.9766 7 14.0625 6.33203 10.2305 3.55469C10.125 3.44922 9.98438 3.34375 9.84375 3.23828C9.66797 3.09766 9.28125 2.78125 9 2.60547C8.68359 2.78125 8.29688 3.09766 8.12109 3.23828C7.98047 3.34375 7.83984 3.44922 7.73438 3.51953C3.86719 6.33203 2.98828 7 2.25 7.59766V9.21484L7.3125 13.1875C7.80469 13.5742 8.40234 13.75 9 13.75C9.5625 13.75 10.1602 13.5742 10.6523 13.1875Z" fill="#1F75FE"/>
</svg>
