<svg width="12" height="17" viewBox="0 0 12 17" fill="none" xmlns="http://www.w3.org/2000/svg">
<path d="M5.375 16.5449C0.8125 9.98242 0 9.29492 0 6.85742C0 3.54492 2.65625 0.857422 6 0.857422C9.3125 0.857422 12 3.54492 12 6.85742C12 9.29492 11.1562 9.98242 6.59375 16.5449C6.3125 16.9824 5.65625 16.9824 5.375 16.5449ZM6 9.35742C7.375 9.35742 8.5 8.26367 8.5 6.85742C8.5 5.48242 7.375 4.35742 6 4.35742C4.59375 4.35742 3.5 5.48242 3.5 6.85742C3.5 8.26367 4.59375 9.35742 6 9.35742Z" fill="#1F75FE"/>
</svg>
