<svg width="13" height="11" viewBox="0 0 13 11" fill="none" xmlns="http://www.w3.org/2000/svg">
<path d="M12.3479 5.79229L8.16762 9.97262C8.01085 10.1294 7.80184 10.2078 7.59282 10.2078C7.35768 10.2078 7.14866 10.1294 6.9919 9.97262C6.65225 9.6591 6.65225 9.11043 6.9919 8.7969L9.73524 6.02744H1.74036C1.27008 6.02744 0.904297 5.66166 0.904297 5.19137C0.904297 4.74721 1.27008 4.3553 1.74036 4.3553H9.73524L6.9919 1.61196C6.65225 1.29844 6.65225 0.749772 6.9919 0.436248C7.30542 0.0965962 7.85409 0.0965962 8.16762 0.436248L12.3479 4.61658C12.6876 4.9301 12.6876 5.47877 12.3479 5.79229Z" fill="#1C2539"/>
</svg>
