<svg width="13" height="11" viewBox="0 0 13 11" fill="none" xmlns="http://www.w3.org/2000/svg">
<path d="M12.3655 6.09283L8.18519 10.2732C8.02843 10.4299 7.81942 10.5083 7.6104 10.5083C7.37526 10.5083 7.16624 10.4299 7.00948 10.2732C6.66983 9.95963 6.66983 9.41096 7.00948 9.09744L9.75282 6.32797H1.75794C1.28765 6.32797 0.921875 5.96219 0.921875 5.49191C0.921875 5.04775 1.28765 4.65584 1.75794 4.65584H9.75282L7.00948 1.9125C6.66983 1.59898 6.66983 1.05031 7.00948 0.736785C7.323 0.397133 7.87167 0.397133 8.18519 0.736785L12.3655 4.91711C12.7052 5.23064 12.7052 5.77931 12.3655 6.09283Z" fill="#1F75FE"/>
</svg>
